<svg width="1200" height="780" viewBox="0 0 1200 780" fill="none" xmlns="http://www.w3.org/2000/svg">
  <rect width="1200" height="780" rx="36" fill="url(#bg)"/>
  <circle cx="200" cy="140" r="90" fill="#D9E7FF"/>
  <circle cx="1040" cy="90" r="64" fill="#C9DCFF"/>
  <path d="M286 436C307 365 367 314 445 314H745C815 314 878 359 904 424L934 502C939 514 940 526 938 538C930 571 901 596 867 596H334C299 596 270 569 262 534C259 522 259 510 264 498L286 436Z" fill="#0D3FA0"/>
  <path d="M362 456C380 399 434 360 494 360H719C779 360 834 399 853 456L866 496H349L362 456Z" fill="#1B68F5"/>
  <rect x="418" y="386" width="178" height="78" rx="16" fill="#E9F1FF"/>
  <rect x="612" y="386" width="186" height="78" rx="16" fill="#E9F1FF"/>
  <circle cx="416" cy="592" r="66" fill="#111C33"/>
  <circle cx="416" cy="592" r="30" fill="#DCE7FF"/>
  <circle cx="778" cy="592" r="66" fill="#111C33"/>
  <circle cx="778" cy="592" r="30" fill="#DCE7FF"/>
  <rect x="462" y="524" width="258" height="30" rx="15" fill="#295FCA"/>
  <defs>
    <linearGradient id="bg" x1="0" y1="0" x2="1200" y2="780" gradientUnits="userSpaceOnUse">
      <stop stop-color="#F5F9FF"/>
      <stop offset="1" stop-color="#DFEBFF"/>
    </linearGradient>
  </defs>
</svg>
